<?xml version="1.0" encoding="UTF-8"?>
<svg width="752pt" height="752pt" version="1.1" viewBox="0 0 752 752" xmlns="http://www.w3.org/2000/svg">
 <path d="m312.78 234.89h269.32l-159.96 109.66-108.8-74.602c4.1445-11.09 4.1758-23.629-0.55469-35.062zm-70.434 63.648 39.258-23.902c11.652-7.0938 15.516-22.23 8.6953-34.039l-35.438-61.387c-3.6367-6.3008-9.1406-10.352-16.234-11.953-7.0938-1.6016-13.805-0.3125-19.793 3.8125l-64.633 44.5c-30.77 108.4 107.49 343.09 213.52 369.83l70.855-33.723c6.5664-3.1289 11.039-8.2891 13.199-15.234 2.1602-6.9453 1.4023-13.734-2.2344-20.035l-35.438-61.383c-6.8164-11.816-21.859-16.031-33.828-9.4883l-40.328 22.047c-39.883-35.469-86.824-116.78-97.602-169.05zm359.32-49.547-173.13 118.69c-4.0508 2.7617-9.2539 2.5508-13.02-0.15625l-114.94-78.793c-2.1758 1.9648-4.5625 3.75-7.1523 5.3281l-24.828 15.113c13.043 42.098 45.32 98.008 75.262 130.35l25.508-13.945c22.793-12.457 51.441-4.4219 64.434 18.07l21.977 38.07h128.02c10.109 0 18.383-8.2695 18.383-18.383l-0.003907-210.07c-0.003906-1.4688-0.18359-2.8984-0.50781-4.2734z" fill="#2e789c" fill-rule="evenodd"/>
</svg>
